<svg width="56" height="79" viewBox="0 0 56 79" fill="none" xmlns="http://www.w3.org/2000/svg">
<path d="M-0.000572875 27.6917C-0.000574213 12.3942 12.5194 3.79738e-06 27.9852 2.44531e-06C41.3336 1.27835e-06 52.4858 9.24357 55.2739 21.6117C55.3002 21.6768 55.3133 21.7549 55.3265 21.82C55.6027 23.3693 55.892 25.5175 55.9446 28.0953C55.9446 28.616 55.9709 29.1498 55.9446 29.6966C55.721 47.2985 44.411 59.6406 41.2942 63.0386C32.7064 72.4253 22.8825 76.8909 16.8987 79C20.1076 75.4458 25.0788 69.0274 28.2087 59.7187C28.7085 58.2215 29.1293 56.7764 29.4713 55.3573C28.9847 55.3833 28.4849 55.3963 27.9852 55.3963C12.5194 55.3963 -0.000571538 42.9891 -0.000572875 27.6917Z" fill="#FFC800"/>
</svg>
