<svg width="57" height="79" viewBox="0 0 57 79" fill="none" xmlns="http://www.w3.org/2000/svg">
<path d="M56.5005 51.3083C56.5005 66.6058 43.9806 79 28.5148 79C15.1663 79 4.01411 69.7564 1.22606 57.3883C1.19975 57.3232 1.1866 57.2451 1.17345 57.18C0.897276 55.6307 0.60795 53.4825 0.555345 50.9047C0.555345 50.384 0.529043 49.8502 0.555345 49.3034C0.778916 31.7015 12.0889 19.3594 15.2058 15.9614C23.7935 6.57465 33.6174 2.1091 39.6012 0C36.3923 3.55422 31.4212 9.97264 28.2912 19.2813C27.7915 20.7785 27.3706 22.2236 27.0287 23.6427C27.5153 23.6167 28.015 23.6037 28.5148 23.6037C43.9806 23.6037 56.5005 36.0109 56.5005 51.3083Z" fill="#FFC800"/>
</svg>
